PathFileType	4	(X/Y/Z)	C:/Users/opensim2020/Desktop/walking_exp_matlab/subject06_walking13_straight_03.trc																																																																																																																																																				
DataRate	CameraRate	NumFrames	NumMarkers	Units	OrigDataRate	OrigDataStartFrame	OrigNumFrames																																																																																																																																																
100	100	5	50	mm	100	2250	172																																																																																																																																																
Frame#	Time	LFHD			RFHD			LBHD			RBHD			C7			T10			CLAV			STRN			RBAK			LSHO			LUPA			LELB			LFRM			LWRA			LWRB			LFIN			RSHO			RUPA			RELB			RFRM			RWRA			RWRB			RFIN			LASI			RASI			LPSI			RPSI			LTHI			LKNE			LTIB			LANK			LHEE			LTOE			RTHI			RKNE			RTIB			RANK			RHEE			RTOE			*39			*40			*41			*42			*43			*44			*45			*46			*47			*48			*49		
		X1	Y1	Z1	X2	Y2	Z2	X3	Y3	Z3	X4	Y4	Z4	X5	Y5	Z5	X6	Y6	Z6	X7	Y7	Z7	X8	Y8	Z8	X9	Y9	Z9	X10	Y10	Z10	X11	Y11	Z11	X12	Y12	Z12	X13	Y13	Z13	X14	Y14	Z14	X15	Y15	Z15	X16	Y16	Z16	X17	Y17	Z17	X18	Y18	Z18	X19	Y19	Z19	X20	Y20	Z20	X21	Y21	Z21	X22	Y22	Z22	X23	Y23	Z23	X24	Y24	Z24	X25	Y25	Z25	X26	Y26	Z26	X27	Y27	Z27	X28	Y28	Z28	X29	Y29	Z29	X30	Y30	Z30	X31	Y31	Z31	X32	Y32	Z32	X33	Y33	Z33	X34	Y34	Z34	X35	Y35	Z35	X36	Y36	Z36	X37	Y37	Z37	X38	Y38	Z38	X39	Y39	Z39	X40	Y40	Z40	X41	Y41	Z41	X42	Y42	Z42	X43	Y43	Z43	X44	Y44	Z44	X45	Y45	Z45	X46	Y46	Z46	X47	Y47	Z47	X48	Y48	Z48	X49	Y49	Z49	X50	Y50	Z50
																																																																																																																																																							
65	0.64	-60.80251	1644.98572	-1050.83203	-73.71135	1631.44189	-919.93243	-195.07077	1597.11084	-1065.50195	-206.26793	1588.39441	-936.92902	-207.94444	1437.36609	-1007.51593	-254.61963	1109.03125	-995.67938	-99.52538	1356.776	-1003.19348	-63.36861	1182.18323	-1006.70819	-288.6593	1270.09766	-922.96686	-151.3363	1389.49329	-1167.08667	-208.26222	1196.40723	-1232.1604	-250.39075	1091.28967	-1237.77185	-273.52017	942.69012	-1261.91089	-240.82599	814.11249	-1227.73389	-305.15283	828.12799	-1257.53979	-291.53412	737.43115	-1259.28003	-149.37416	1392.5144	-845.10022	-146.33058	1200.68945	-743.52698	-95.77543	1091.89929	-718.74866	-15.36252	1005.45599	-700.57611	114.9819	934.12787	-737.74207	75.48623	903.13629	-693.95172	151.62152	870.31165	-692.44409	-74.5713	951.00354	-1101.7738	-83.37988	951.17358	-883.54724	-235.26068	971.62085	-1083.19226	-233.99007	976.79077	-914.12549	-84.62023	638.67078	-1180.16699	-28.22453	486.02768	-1152.3053	20.94081	236.64792	-1148.97986	89.10729	74.71975	-1116.08398	63.47402	49.23899	-1064.55469	235.6208	90.3884	-1128.89709	-174.48341	617.92621	-844.10889	-195.39157	492.71069	-867.15729	-320.50089	250.40671	-877.74982	-385.94623	77.01729	-932.39795	-430.42542	60.30892	-977.62439	-239.57643	30.04302	-929.74304	-164.19911	1686.9032	-1000.56158	NaN	NaN	NaN	NaN	NaN	NaN	NaN	NaN	NaN	NaN	NaN	NaN	NaN	NaN	NaN	NaN	NaN	NaN	NaN	NaN	NaN	NaN	NaN	NaN	NaN	NaN	NaN	NaN	NaN	NaN
66	0.65	-50.5037	1643.28333	-1051.70789	-63.33688	1630.02197	-920.78387	-184.68962	1595.59766	-1066.2981	-195.88133	1586.98975	-937.78931	-197.52261	1435.70752	-1008.19562	-243.77173	1107.32336	-996.32214	-88.9603	1355.32581	-1003.78943	-52.37295	1180.88696	-1007.11084	-278.21692	1268.41528	-923.69775	-141.03557	1387.71985	-1167.75208	-199.27486	1195.09839	-1232.35681	-242.18675	1090.22253	-1237.84473	-266.85458	941.92419	-1261.92432	-234.40033	813.11047	-1228.42542	-299.21573	827.45056	-1257.15466	-286.13535	736.78699	-1259.46838	-139.2244	1390.85254	-845.71271	-135.78825	1198.95898	-744.24316	-84.62988	1090.46924	-719.50885	-3.7637	1004.57025	-701.17664	127.18383	934.41223	-738.11768	87.66135	902.86121	-694.73273	164.2282	870.99652	-692.98657	-63.50278	949.73547	-1102.15454	-72.74211	949.58899	-883.97418	-224.04128	970.04932	-1084.46497	-223.32207	975.03314	-915.41882	-72.60798	637.06207	-1180.24683	-17.57956	484.55063	-1151.84338	33.37794	235.40257	-1147.94604	103.51471	74.21175	-1115.02771	78.37247	48.7248	-1063.31824	250.25189	90.96378	-1128.36914	-165.42857	616.82458	-844.61066	-186.82744	491.61624	-867.42017	-316.35913	251.33817	-877.72357	-385.02921	78.95578	-931.72723	-429.81152	63.04052	-976.85815	-239.43091	30.01556	-929.6618	-153.82008	1685.39905	-1001.42822	NaN	NaN	NaN	NaN	NaN	NaN	NaN	NaN	NaN	NaN	NaN	NaN	NaN	NaN	NaN	NaN	NaN	NaN	NaN	NaN	NaN	NaN	NaN	NaN	NaN	NaN	NaN	NaN	NaN	NaN
67	0.66	-39.93837	1642.11511	-1052.5686	-52.88285	1628.73474	-921.66449	-174.23816	1594.25354	-1067.21558	-185.3739	1585.68652	-938.65826	-187.00577	1434.21008	-1008.96429	-232.85286	1105.73474	-997.03247	-78.23882	1354.05334	-1004.38416	-41.42855	1179.64331	-1007.53699	-267.85269	1266.74854	-924.62286	-130.57773	1386.0249	-1168.46338	-189.73009	1193.76147	-1232.65369	-233.53856	1089.17822	-1237.80566	-259.35812	941.06757	-1262.02563	-227.15627	812.0899	-1229.04858	-292.55164	826.81476	-1256.87781	-279.9664	736.07977	-1259.78638	-129.1497	1389.32654	-846.32275	-125.20405	1197.31592	-745.16205	-73.63036	1089.06189	-720.38818	7.50761	1003.54144	-701.91656	138.89366	934.29736	-738.59497	99.52224	902.36017	-695.47247	176.16699	871.2774	-693.07788	-52.2666	948.61078	-1102.74683	-61.88918	948.13141	-884.52344	-212.59799	968.61328	-1085.85376	-212.55179	973.44067	-916.81024	-60.45192	635.56213	-1180.11914	-6.32332	483.45685	-1151.36206	44.9218	234.14618	-1146.91968	115.63332	73.05323	-1113.71021	90.72584	47.68831	-1062.02429	262.40115	90.16022	-1127.39514	-155.911	615.90747	-845.33319	-178.15573	490.71689	-867.68689	-311.6167	252.43605	-877.51239	-383.8613	81.35044	-930.81335	-429.03677	66.29593	-975.85547	-239.32162	29.89732	-929.60999	-143.39029	1684.10266	-1002.41498	NaN	NaN	NaN	NaN	NaN	NaN	NaN	NaN	NaN	NaN	NaN	NaN	NaN	NaN	NaN	NaN	NaN	NaN	NaN	NaN	NaN	NaN	NaN	NaN	NaN	NaN	NaN	NaN	NaN	NaN
68	0.67	-29.5009	1640.75891	-1053.5979	-42.43136	1627.66479	-922.61938	-163.67639	1592.98633	-1068.19971	-174.94322	1584.56641	-939.62616	-176.3515	1432.93311	-1009.80524	-221.82852	1104.30396	-997.81799	-67.49477	1352.89197	-1004.99011	-30.32693	1178.60242	-1008.03259	-257.12415	1265.31982	-925.62555	-119.77286	1384.48816	-1169.21606	-179.66824	1192.42578	-1232.95239	-224.09584	1088.06799	-1238.03955	-250.89294	940.17059	-1262.15491	-219.46515	810.97284	-1229.66101	-285.17413	826.13531	-1256.74744	-272.98877	735.44513	-1260.19006	-119.12663	1388.00989	-846.97809	-114.92609	1195.87329	-746.21698	-62.87399	1087.78296	-721.49561	18.48124	1002.4743	-702.86133	150.1978	933.867	-739.1496	110.75733	901.62756	-696.19006	187.82321	871.10138	-693.47632	-40.99406	947.59448	-1103.5885	-50.89418	946.85052	-885.2514	-201.16002	967.34735	-1087.29016	-201.46767	972.03802	-918.31134	-48.27424	634.33759	-1180.05542	5.76638	482.76501	-1150.96094	55.61135	232.70598	-1145.90002	125.50419	71.42139	-1112.12805	100.34154	46.25455	-1060.35681	272.53311	87.91978	-1125.62439	-145.95665	615.08807	-845.87024	-168.74947	489.86322	-868.01526	-306.34048	253.6769	-877.2793	-382.54465	84.0819	-929.80841	-428.05508	70.00932	-974.62537	-239.21902	29.76786	-929.53729	-132.8764	1682.93054	-1003.45203	NaN	NaN	NaN	NaN	NaN	NaN	NaN	NaN	NaN	NaN	NaN	NaN	NaN	NaN	NaN	NaN	NaN	NaN	NaN	NaN	NaN	NaN	NaN	NaN	NaN	NaN	NaN	NaN	NaN	NaN
69	0.68	-18.7813	1639.97278	-1054.52771	-31.84476	1626.77625	-923.64398	-153.08907	1591.85474	-1069.22058	-164.44997	1583.63318	-940.7077	-165.66505	1431.76294	-1010.70996	-210.61932	1103.10889	-998.7204	-56.65558	1351.92847	-1005.56903	-19.02988	1177.75378	-1008.52478	-246.60339	1263.92151	-926.8316	-108.89043	1383.20288	-1170.02808	-169.01205	1191.21631	-1233.4895	-213.86209	1087.00732	-1238.33398	-241.76649	939.31647	-1262.42212	-211.76596	809.72632	-1230.39893	-276.97385	825.47461	-1256.81665	-265.2388	734.83521	-1260.75977	-109.08519	1386.89441	-847.64093	-104.71745	1194.54956	-747.39905	-52.25034	1086.57886	-722.75482	29.1593	1001.32825	-703.94214	161.07404	933.08698	-739.69995	121.61561	900.57001	-697.05212	198.51964	870.4599	-693.87878	-29.56323	946.71954	-1104.51819	-39.66906	945.78186	-886.09003	-189.43317	966.19757	-1088.73535	-190.25949	970.81427	-919.8067	-35.88546	633.47614	-1180.02771	18.2617	482.35544	-1150.69336	65.46638	231.13351	-1145.0376	133.38362	69.23689	-1110.22705	107.70938	44.40641	-1058.58228	280.45523	84.45258	-1123.24463	-135.50905	614.33569	-846.66296	-158.49179	488.96497	-868.20959	-300.83719	255.26015	-876.93781	-380.96051	87.30302	-928.64276	-426.92413	74.33501	-973.5141	-239.07323	29.70492	-929.34076	-122.36249	1681.94104	-1004.60205	NaN	NaN	NaN	NaN	NaN	NaN	NaN	NaN	NaN	NaN	NaN	NaN	NaN	NaN	NaN	NaN	NaN	NaN	NaN	NaN	NaN	NaN	NaN	NaN	NaN	NaN	NaN	NaN	NaN	NaN
